G04 (created by PCBNEW (2013-jul-07)-stable) date Mon 28 Jul 2014 21:30:54 BST*
%MOIN*%
G04 Gerber Fmt 3.4, Leading zero omitted, Abs format*
%FSLAX34Y34*%
G01*
G70*
G90*
G04 APERTURE LIST*
%ADD10C,0.00590551*%
%ADD11C,0.011811*%
%ADD12C,0.015*%
%ADD13C,0.01*%
%ADD14C,0.0354331*%
%ADD15C,0.11811*%
%ADD16C,0.0492126*%
G04 APERTURE END LIST*
G54D10*
G54D11*
X42273Y-42707D02*
X42250Y-42730D01*
X42226Y-42777D01*
X42226Y-42894D01*
X42250Y-42941D01*
X42273Y-42964D01*
X42320Y-42988D01*
X42367Y-42988D01*
X42437Y-42964D01*
X42718Y-42683D01*
X42718Y-42988D01*
X42226Y-43293D02*
X42226Y-43339D01*
X42250Y-43386D01*
X42273Y-43410D01*
X42320Y-43433D01*
X42414Y-43457D01*
X42531Y-43457D01*
X42625Y-43433D01*
X42672Y-43410D01*
X42695Y-43386D01*
X42718Y-43339D01*
X42718Y-43293D01*
X42695Y-43246D01*
X42672Y-43222D01*
X42625Y-43199D01*
X42531Y-43175D01*
X42414Y-43175D01*
X42320Y-43199D01*
X42273Y-43222D01*
X42250Y-43246D01*
X42226Y-43293D01*
X42718Y-43925D02*
X42718Y-43644D01*
X42718Y-43785D02*
X42226Y-43785D01*
X42297Y-43738D01*
X42343Y-43691D01*
X42367Y-43644D01*
X42390Y-44347D02*
X42718Y-44347D01*
X42203Y-44230D02*
X42554Y-44113D01*
X42554Y-44417D01*
X42226Y-44699D02*
X42226Y-44745D01*
X42250Y-44792D01*
X42273Y-44816D01*
X42320Y-44839D01*
X42414Y-44863D01*
X42531Y-44863D01*
X42625Y-44839D01*
X42672Y-44816D01*
X42695Y-44792D01*
X42718Y-44745D01*
X42718Y-44699D01*
X42695Y-44652D01*
X42672Y-44628D01*
X42625Y-44605D01*
X42531Y-44581D01*
X42414Y-44581D01*
X42320Y-44605D01*
X42273Y-44628D01*
X42250Y-44652D01*
X42226Y-44699D01*
X42226Y-45027D02*
X42226Y-45355D01*
X42718Y-45144D01*
X42273Y-45519D02*
X42250Y-45542D01*
X42226Y-45589D01*
X42226Y-45706D01*
X42250Y-45753D01*
X42273Y-45777D01*
X42320Y-45800D01*
X42367Y-45800D01*
X42437Y-45777D01*
X42718Y-45495D01*
X42718Y-45800D01*
X42718Y-46034D02*
X42718Y-46128D01*
X42695Y-46175D01*
X42672Y-46198D01*
X42601Y-46245D01*
X42507Y-46269D01*
X42320Y-46269D01*
X42273Y-46245D01*
X42250Y-46222D01*
X42226Y-46175D01*
X42226Y-46081D01*
X42250Y-46034D01*
X42273Y-46011D01*
X42320Y-45988D01*
X42437Y-45988D01*
X42484Y-46011D01*
X42507Y-46034D01*
X42531Y-46081D01*
X42531Y-46175D01*
X42507Y-46222D01*
X42484Y-46245D01*
X42437Y-46269D01*
G54D10*
X42716Y-42519D02*
G75*
G03X42716Y-42519I-1574J0D01*
G74*
G01*
G54D12*
X40354Y-43307D02*
X41929Y-43307D01*
X41929Y-43307D02*
X41929Y-41732D01*
X41929Y-41732D02*
X40354Y-41732D01*
X40354Y-41732D02*
X40354Y-43307D01*
G54D13*
X41827Y-44059D02*
X41827Y-43659D01*
X41675Y-43659D01*
X41636Y-43678D01*
X41617Y-43697D01*
X41598Y-43735D01*
X41598Y-43792D01*
X41617Y-43831D01*
X41636Y-43850D01*
X41675Y-43869D01*
X41827Y-43869D01*
X41446Y-43697D02*
X41427Y-43678D01*
X41389Y-43659D01*
X41294Y-43659D01*
X41256Y-43678D01*
X41236Y-43697D01*
X41217Y-43735D01*
X41217Y-43773D01*
X41236Y-43831D01*
X41465Y-44059D01*
X41217Y-44059D01*
X40836Y-43678D02*
X40875Y-43659D01*
X40932Y-43659D01*
X40989Y-43678D01*
X41027Y-43716D01*
X41046Y-43754D01*
X41065Y-43831D01*
X41065Y-43888D01*
X41046Y-43964D01*
X41027Y-44002D01*
X40989Y-44040D01*
X40932Y-44059D01*
X40894Y-44059D01*
X40836Y-44040D01*
X40817Y-44021D01*
X40817Y-43888D01*
X40894Y-43888D01*
X40436Y-44059D02*
X40665Y-44059D01*
X40551Y-44059D02*
X40551Y-43659D01*
X40589Y-43716D01*
X40627Y-43754D01*
X40665Y-43773D01*
X41696Y-40805D02*
X41468Y-40805D01*
X41582Y-41205D02*
X41582Y-40805D01*
X41354Y-41186D02*
X41296Y-41205D01*
X41201Y-41205D01*
X41163Y-41186D01*
X41144Y-41167D01*
X41125Y-41129D01*
X41125Y-41091D01*
X41144Y-41053D01*
X41163Y-41034D01*
X41201Y-41015D01*
X41277Y-40996D01*
X41315Y-40977D01*
X41334Y-40957D01*
X41354Y-40919D01*
X41354Y-40881D01*
X41334Y-40843D01*
X41315Y-40824D01*
X41277Y-40805D01*
X41182Y-40805D01*
X41125Y-40824D01*
X41011Y-40805D02*
X40782Y-40805D01*
X40896Y-41205D02*
X40896Y-40805D01*
%LPC*%
G54D14*
X41594Y-40000D03*
X40688Y-40000D03*
G54D15*
X41141Y-42519D03*
G54D16*
X39960Y-44685D03*
M02*
