G04 (created by PCBNEW (2013-jul-07)-stable) date Mon 28 Jul 2014 21:30:54 BST*
%MOIN*%
G04 Gerber Fmt 3.4, Leading zero omitted, Abs format*
%FSLAX34Y34*%
G01*
G70*
G90*
G04 APERTURE LIST*
%ADD10C,0.00590551*%
%ADD11R,0.0570866X0.0393701*%
%ADD12R,0.0354331X0.0511811*%
%ADD13C,0.0354331*%
%ADD14R,0.0472X0.0137*%
%ADD15C,0.0492126*%
%ADD16R,0.0354X0.0394*%
%ADD17C,0.035*%
%ADD18C,0.01*%
G04 APERTURE END LIST*
G54D10*
G54D11*
X42470Y-39724D03*
X39812Y-39724D03*
G54D12*
X41968Y-40354D03*
X40314Y-40354D03*
G54D13*
X41594Y-40000D03*
X40688Y-40000D03*
G54D14*
X39990Y-45679D03*
X39990Y-45935D03*
X39990Y-46189D03*
X39990Y-46445D03*
X42292Y-46445D03*
X42292Y-46189D03*
X42292Y-45935D03*
X42292Y-45679D03*
G54D15*
X39960Y-44685D03*
G54D16*
X41437Y-42913D03*
X40845Y-42913D03*
X41437Y-44488D03*
X40845Y-44488D03*
X41437Y-41338D03*
X40845Y-41338D03*
G54D17*
X42527Y-41021D03*
X40666Y-44977D03*
X42292Y-45333D03*
G54D18*
X42026Y-46190D02*
X42292Y-46190D01*
X41902Y-46066D02*
X42026Y-46190D01*
X41902Y-42792D02*
X41902Y-46066D01*
X41676Y-42566D02*
X41902Y-42792D01*
X41192Y-42566D02*
X41676Y-42566D01*
X40845Y-42913D02*
X41192Y-42566D01*
X41607Y-46146D02*
X41906Y-46445D01*
X41607Y-45250D02*
X41607Y-46146D01*
X40845Y-44488D02*
X41607Y-45250D01*
X42292Y-46445D02*
X41906Y-46445D01*
X39556Y-40327D02*
X39812Y-40071D01*
X39556Y-45887D02*
X39556Y-40327D01*
X39604Y-45935D02*
X39556Y-45887D01*
X39990Y-45935D02*
X39604Y-45935D01*
X39812Y-39724D02*
X39812Y-40071D01*
X42470Y-39724D02*
X42470Y-40071D01*
X42527Y-40128D02*
X42527Y-41021D01*
X42470Y-40071D02*
X42527Y-40128D01*
X39990Y-46445D02*
X40376Y-46445D01*
X40666Y-46155D02*
X40666Y-44977D01*
X40376Y-46445D02*
X40666Y-46155D01*
X42678Y-43171D02*
X42678Y-45935D01*
X40845Y-41338D02*
X42678Y-43171D01*
X42292Y-45935D02*
X42678Y-45935D01*
X42292Y-45333D02*
X42292Y-45680D01*
X40504Y-44141D02*
X40518Y-44141D01*
X39960Y-44685D02*
X40504Y-44141D01*
X41090Y-44141D02*
X41437Y-44488D01*
X40518Y-44141D02*
X41090Y-44141D01*
X41069Y-43282D02*
X41437Y-42913D01*
X40518Y-43282D02*
X41069Y-43282D01*
X40518Y-41061D02*
X40518Y-43282D01*
X40591Y-40988D02*
X40518Y-41061D01*
X41087Y-40988D02*
X40591Y-40988D01*
X41437Y-41338D02*
X41087Y-40988D01*
X40518Y-43282D02*
X40518Y-44141D01*
M02*
